<?xml version="1.0" encoding="UTF-8"?>
<svg xmlns="http://www.w3.org/2000/svg" xmlns:xlink="http://www.w3.org/1999/xlink" viewBox="0 0 100 100" width="100px" height="100px">
<g id="surface26692156">
<path style=" stroke:none;fill-rule:nonzero;fill:rgb(90.588236%,29.803923%,23.529412%);fill-opacity:1;" d="M 49.9375 4 C 49.734375 3.992188 34.914062 3.5625 23.125 13.25 C 22.976562 13.375 22.851562 13.523438 22.75 13.6875 C 20.757812 16.609375 19.9375 21.171875 19.25 25.6875 C 18.648438 29.640625 18.328125 32.914062 18.125 34.875 C 17.804688 35.03125 17.398438 35.0625 17.125 35.3125 C 16.523438 35.859375 16 36.742188 16 37.8125 C 16 37.835938 16 37.851562 16 37.875 L 16.625 55.375 C 16.625 55.398438 16.625 55.414062 16.625 55.4375 C 16.640625 56.367188 16.960938 57.09375 17.5 57.6875 C 17.890625 58.117188 18.59375 58.3125 19.25 58.5 C 19.414062 59.226562 20.15625 62.664062 21.25 67.1875 C 21.851562 69.671875 22.515625 72.242188 23.125 74.4375 C 23.734375 76.632812 24.21875 78.320312 24.8125 79.5 C 27.023438 83.929688 32.398438 91.492188 38.0625 94.5625 C 38.085938 94.5625 38.101562 94.5625 38.125 94.5625 C 39.625 95.3125 41.453125 95.640625 43.5 95.875 C 45.546875 96.109375 47.75 96.1875 49.625 96.1875 C 51.695312 96.1875 54.210938 96.109375 56.5 95.875 C 57.648438 95.757812 58.734375 95.578125 59.6875 95.375 C 60.59375 95.1875 61.34375 95.023438 62.125 94.5625 C 62.148438 94.546875 62.164062 94.515625 62.1875 94.5 C 62.203125 94.492188 62.234375 94.507812 62.25 94.5 C 64.992188 93.03125 67.601562 90.382812 69.9375 87.5625 C 72.289062 84.71875 74.257812 81.789062 75.375 79.5625 C 75.382812 79.546875 75.367188 79.515625 75.375 79.5 C 76.03125 78.25 76.40625 76.609375 76.9375 74.4375 C 77.476562 72.242188 78.0625 69.6875 78.5625 67.1875 C 79.445312 62.804688 79.960938 59.695312 80.125 58.75 C 81.007812 58.710938 81.679688 58.390625 82.25 57.875 C 82.84375 57.335938 83.351562 56.476562 83.375 55.4375 C 83.375 55.414062 83.375 55.398438 83.375 55.375 L 84 37.875 C 84 37.851562 84 37.835938 84 37.8125 C 84 36.84375 83.609375 36.101562 83.0625 35.5 C 82.796875 35.203125 82.28125 35.140625 81.875 34.9375 C 81.695312 33.03125 81.4375 29.679688 80.875 25.6875 C 80.234375 21.15625 79.46875 16.515625 77.1875 13.5625 C 77.09375 13.445312 76.992188 13.34375 76.875 13.25 C 65.085938 3.5625 50.265625 3.992188 50.0625 4 Z M 49.9375 8 C 49.976562 8 50.023438 8 50.0625 8 C 50.0625 8 63.625 7.757812 74.125 16.25 C 75.210938 17.828125 76.34375 22.070312 76.9375 26.25 C 77.546875 30.570312 77.773438 34.726562 78 36.625 C 78.125 37.632812 78.984375 38.382812 80 38.375 L 79.375 54.8125 L 78.375 54.8125 C 77.273438 54.8125 76.375 55.710938 76.375 56.8125 L 76.375 57.1875 C 76.328125 57.476562 75.585938 61.59375 74.625 66.375 C 74.125 68.84375 73.578125 71.398438 73.0625 73.5 C 72.546875 75.601562 71.945312 77.445312 71.8125 77.6875 C 70.929688 79.460938 69 82.359375 66.8125 85 C 64.625 87.640625 62.070312 90.054688 60.25 91 C 60.203125 91.039062 60.164062 91.078125 60.125 91.125 C 60.148438 91.109375 59.617188 91.34375 58.875 91.5 C 58.132812 91.65625 57.179688 91.765625 56.125 91.875 C 54.015625 92.09375 51.554688 92.1875 49.625 92.1875 C 47.898438 92.1875 45.789062 92.085938 43.9375 91.875 C 42.085938 91.664062 40.375 91.25 39.875 91 C 35.9375 88.820312 30.148438 81.242188 28.375 77.6875 C 28.164062 77.265625 27.585938 75.492188 27 73.375 C 26.414062 71.257812 25.71875 68.710938 25.125 66.25 C 23.984375 61.546875 23.085938 57.570312 23 57.1875 L 23 56.8125 C 23 55.710938 22.101562 54.8125 21 54.8125 L 20.625 54.8125 L 20 38.375 C 21.015625 38.382812 21.875 37.632812 22 36.625 C 22.210938 34.804688 22.523438 30.585938 23.1875 26.25 C 23.835938 22.015625 25.007812 17.773438 26 16.1875 C 36.484375 7.789062 49.9375 8 49.9375 8 Z M 40.625 12.8125 C 40.625 12.8125 34.023438 14.828125 31.625 16.625 C 29.023438 18.625 27 21.625 27 21.625 L 27.625 45 L 25 52.8125 C 25 52.8125 25.625 57.609375 26.625 58.8125 C 27.625 60.210938 35 72.375 35 72.375 C 35 72.375 36 77.226562 35 81.625 C 34.601562 84.625 36 86.375 36 86.375 L 37.8125 88.375 C 38.210938 88.773438 38.585938 89 39.1875 89 C 39.390625 89 39.609375 89.015625 39.8125 88.8125 L 43.375 87.1875 L 57.8125 87.1875 L 61.375 88.8125 C 61.578125 88.8125 61.796875 89 62 89 C 62.398438 89 62.976562 88.773438 63.375 88.375 L 65.1875 86.375 C 65.1875 86.375 66.789062 84.421875 66.1875 81.625 C 65.1875 77.226562 66.1875 72.375 66.1875 72.375 C 66.1875 72.375 72.625 60.210938 73.625 58.8125 C 74.625 57.414062 75.226562 52.773438 75.625 52.375 L 73 44.625 L 73.625 21.625 C 73.625 21.625 71.1875 18.625 69.1875 16.625 C 66.390625 14.421875 59.8125 12.8125 59.8125 12.8125 L 57.625 30 C 57.625 30 57 33.796875 57 34 C 57 34.398438 54.625 35 54.625 35 L 46 35 C 46 35 43.625 34.398438 43.625 34 C 43.625 33.601562 43 30 43 30 Z M 63.1875 18 C 64.585938 18.398438 65.585938 18.976562 66.1875 19.375 C 67.1875 20.375 68.390625 22.015625 69.1875 22.8125 L 68.625 44.375 C 68.625 44.773438 68.609375 45.414062 68.8125 45.8125 L 70.375 50.4375 L 70 50.1875 C 70 50.1875 69.601562 49.789062 69 50.1875 C 67 50.789062 61.414062 53.414062 55.8125 53.8125 C 54.414062 54.414062 55.375 55 55.375 55 C 55.375 55 56.601562 56.984375 57 57.1875 C 57.398438 57.789062 58.1875 57.8125 58.1875 57.8125 L 64.625 57.375 C 64.625 57.375 65.828125 57.414062 66.625 56.8125 C 67.296875 56.539062 68.929688 55.492188 70.5 54.5 C 70.3125 55.304688 70.132812 56.234375 70 56.625 C 68.796875 58.226562 64.773438 66.023438 62.375 70.625 C 62.171875 71.023438 62.203125 71.226562 62 71.625 C 61.796875 72.226562 60.796875 77.375 62 82.375 C 62.203125 82.976562 61.8125 83.609375 61.8125 83.8125 L 61.1875 84.625 L 59.1875 83.8125 C 58.585938 83.609375 58.226562 83.375 57.625 83.375 L 43.1875 83.375 C 42.585938 83.375 42.226562 83.609375 41.625 83.8125 L 39.625 84.625 L 39 84 C 38.796875 83.796875 38.609375 83.1875 38.8125 82.1875 C 39.8125 77.1875 38.8125 72.226562 38.8125 71.625 C 38.8125 71.226562 38.578125 70.773438 38.375 70.375 C 36.773438 67.578125 31.203125 58.421875 30 56.625 C 29.882812 56.28125 29.734375 55.601562 29.5625 54.875 C 31.054688 55.8125 32.554688 56.742188 33.1875 57 C 33.984375 57.601562 35.1875 57.625 35.1875 57.625 L 41.625 58 C 41.625 58 42.601562 57.984375 43 57.1875 C 43.398438 56.984375 44.625 55 44.625 55 C 44.625 55 45.601562 54.398438 44 54 C 38.398438 53.601562 32.8125 50.976562 30.8125 50.375 C 30.601562 50.234375 30.40625 50.242188 30.25 50.25 L 31.625 46.375 C 31.828125 45.976562 31.8125 45.398438 31.8125 45 L 31.1875 23 C 31.984375 22 32.984375 20.796875 34.1875 20 C 34.789062 19.601562 36.023438 18.976562 37.625 18.375 L 39.1875 30.8125 L 39.1875 31 C 39.390625 32.398438 39.8125 34.226562 39.8125 34.625 C 40.015625 37.828125 43.203125 38.585938 45 39.1875 C 45.398438 39.390625 45.789062 39.375 46.1875 39.375 L 54.8125 39.375 C 55.210938 39.375 55.601562 39.390625 56 39.1875 C 57.796875 38.585938 60.984375 37.828125 61.1875 34.625 C 61.1875 34.226562 61.609375 32.398438 61.8125 31 L 61.8125 30.8125 Z M 63.1875 18 "/>
</g>
</svg>
